<svg xmlns="http://www.w3.org/2000/svg" xmlns:xlink="http://www.w3.org/1999/xlink" version="1.1" width="940" height="788" viewBox="0 0 940 788" xml:space="preserve">
<desc>Created with Fabric.js 3.5.0</desc>
<defs>
</defs>
<rect x="0" y="0" width="100%" height="100%" fill="rgba(255,255,255,0)"/>
<g transform="matrix(1 0 0 1 470 394)" id="572265">
<path style="stroke: none; stroke-width: 1; stroke-dasharray: none; stroke-linecap: butt; stroke-dashoffset: 0; stroke-linejoin: miter; stroke-miterlimit: 4; is-custom-font: none; font-file-url: none; fill: rgb(255,255,255); fill-rule: nonzero; opacity: 1;" vector-effect="non-scaling-stroke" transform=" translate(-320, -256)" d="M 32 0 C 14.3 0 0 14.3 0 32 S 14.3 64 32 64 H 48 c 8.8 0 16 7.2 16 16 V 368 c 0 44.2 35.8 80 80 80 h 18.7 c -1.8 5 -2.7 10.4 -2.7 16 c 0 26.5 21.5 48 48 48 s 48 -21.5 48 -48 c 0 -5.6 -1 -11 -2.7 -16 H 450.7 c -1.8 5 -2.7 10.4 -2.7 16 c 0 26.5 21.5 48 48 48 s 48 -21.5 48 -48 c 0 -5.6 -1 -11 -2.7 -16 H 608 c 17.7 0 32 -14.3 32 -32 s -14.3 -32 -32 -32 H 144 c -8.8 0 -16 -7.2 -16 -16 V 80 C 128 35.8 92.2 0 48 0 H 32 z M 192 80 V 272 c 0 26.5 21.5 48 48 48 H 560 c 26.5 0 48 -21.5 48 -48 V 80 c 0 -26.5 -21.5 -48 -48 -48 H 464 V 176 c 0 5.9 -3.2 11.3 -8.5 14.1 s -11.5 2.5 -16.4 -0.8 L 400 163.2 l -39.1 26.1 c -4.9 3.3 -11.2 3.6 -16.4 0.8 s -8.5 -8.2 -8.5 -14.1 V 32 H 240 c -26.5 0 -48 21.5 -48 48 z" stroke-linecap="round"/>
</g>
</svg>