<svg xmlns="http://www.w3.org/2000/svg" xmlns:xlink="http://www.w3.org/1999/xlink" version="1.1" width="1000" height="1000" viewBox="0 0 1000 1000" xml:space="preserve">
<desc>Created with Fabric.js 3.5.0</desc>
<defs>
</defs>
<rect x="0" y="0" width="100%" height="100%" fill="rgba(255,255,255,0)"/>
<g transform="matrix(2.0782 0 0 2.0782 500.0092 500.0092)" id="487821">
<path style="stroke: none; stroke-width: 1; stroke-dasharray: none; stroke-linecap: butt; stroke-dashoffset: 0; stroke-linejoin: miter; stroke-miterlimit: 4; is-custom-font: none; font-file-url: none; fill: rgb(255,255,255); fill-rule: nonzero; opacity: 1;" vector-effect="non-scaling-stroke" transform=" translate(-218.725, -250.8248)" d="M 0 80 V 229.5 c 0 17 6.7 33.3 18.7 45.3 l 176 176 c 25 25 65.5 25 90.5 0 L 418.7 317.3 c 25 -25 25 -65.5 0 -90.5 l -176 -176 c -12 -12 -28.3 -18.7 -45.3 -18.7 H 48 C 21.5 32 0 53.5 0 80 z m 112 32 a 32 32 0 1 1 0 64 a 32 32 0 1 1 0 -64 z" stroke-linecap="round"/>
</g>
</svg>