<svg xmlns="http://www.w3.org/2000/svg" xmlns:xlink="http://www.w3.org/1999/xlink" version="1.1" width="1000" height="1000" viewBox="0 0 1000 1000" xml:space="preserve">
<desc>Created with Fabric.js 3.5.0</desc>
<defs>
</defs>
<rect x="0" y="0" width="100%" height="100%" fill="rgba(255,255,255,0)"/>
<g transform="matrix(2.8396 0 0 2.8396 500.0035 500.0035)" id="585351">
<path style="stroke: none; stroke-width: 1; stroke-dasharray: none; stroke-linecap: butt; stroke-dashoffset: 0; stroke-linejoin: miter; stroke-miterlimit: 4; is-custom-font: none; font-file-url: none; fill: rgb(255,255,255); fill-rule: nonzero; opacity: 1;" vector-effect="non-scaling-stroke" transform=" translate(-160, -256)" d="M 310.6 150.6 c 12.5 -12.5 12.5 -32.8 0 -45.3 s -32.8 -12.5 -45.3 0 L 160 210.7 L 54.6 105.4 c -12.5 -12.5 -32.8 -12.5 -45.3 0 s -12.5 32.8 0 45.3 L 114.7 256 L 9.4 361.4 c -12.5 12.5 -12.5 32.8 0 45.3 s 32.8 12.5 45.3 0 L 160 301.3 L 265.4 406.6 c 12.5 12.5 32.8 12.5 45.3 0 s 12.5 -32.8 0 -45.3 L 205.3 256 L 310.6 150.6 z" stroke-linecap="round"/>
</g>
</svg>